<svg width="43" height="43" viewBox="0 0 43 43" fill="none" xmlns="http://www.w3.org/2000/svg">
<circle cx="21.5" cy="21.5" r="21.5" fill="#223039"/>
<path fill-rule="evenodd" clip-rule="evenodd" d="M25.8125 13.625H28.4375C29.1607 13.625 29.75 14.2143 29.75 14.9375V30.6875C29.75 31.4107 29.1607 32 28.4375 32H15.3125C14.5893 32 14 31.4107 14 30.6875V14.9375C14 14.2143 14.5893 13.625 15.3125 13.625H17.9375V12.9688C17.9375 12.6065 18.2315 12.3125 18.5938 12.3125H20.0178C20.2895 11.5486 21.0192 11 21.875 11C22.7308 11 23.4605 11.5486 23.7322 12.3125H25.1562C25.5185 12.3125 25.8125 12.6065 25.8125 12.9688V13.625ZM20.5625 13.625H19.25V14.9375H24.5V13.625H23.1875C22.8252 13.625 22.5312 13.331 22.5312 12.9688C22.5312 12.6065 22.2373 12.3125 21.875 12.3125C21.5128 12.3125 21.2188 12.6065 21.2188 12.9688C21.2188 13.331 20.9247 13.625 20.5625 13.625ZM15.3125 14.9375V30.6875H28.4375V14.9375H25.8125V15.5938C25.8125 15.956 25.5185 16.25 25.1562 16.25H18.5938C18.2315 16.25 17.9375 15.956 17.9375 15.5938V14.9375H15.3125ZM21.6833 19.0679C21.4273 18.812 21.0113 18.8107 20.754 19.0666L18.5937 21.2283L17.7458 20.3791C17.4898 20.1232 17.0738 20.1232 16.8178 20.3791C16.5619 20.6351 16.5619 21.0511 16.8178 21.3071L18.1303 22.6196C18.2577 22.7482 18.4257 22.8125 18.5937 22.8125C18.7617 22.8125 18.9297 22.7482 19.0583 22.6209L21.6833 19.9959C21.9392 19.7399 21.9392 19.3239 21.6833 19.0679ZM21.6833 24.3179C21.4273 24.062 21.0113 24.0607 20.754 24.3166L18.5937 26.4783L17.7458 25.6304C17.4898 25.3745 17.0738 25.3745 16.8178 25.6304C16.5619 25.8864 16.5619 26.3024 16.8178 26.5584L18.1303 27.8709C18.2577 27.9982 18.4257 28.0625 18.5937 28.0625C18.7617 28.0625 18.9297 27.9982 19.0583 27.8709L21.6833 25.2459C21.9392 24.9899 21.9392 24.5739 21.6833 24.3179ZM23.1875 20.8438C23.1875 20.4815 23.4815 20.1875 23.8438 20.1875H26.4688C26.831 20.1875 27.125 20.4815 27.125 20.8438C27.125 21.206 26.831 21.5 26.4688 21.5H23.8438C23.4815 21.5 23.1875 21.206 23.1875 20.8438ZM27.125 26.0938C27.125 25.7315 26.831 25.4375 26.4688 25.4375H23.8438C23.4815 25.4375 23.1875 25.7315 23.1875 26.0938C23.1875 26.456 23.4815 26.75 23.8438 26.75H26.4688C26.831 26.75 27.125 26.456 27.125 26.0938Z" fill="#38C0EC"/>
</svg>
