<svg width="43" height="43" viewBox="0 0 43 43" fill="none" xmlns="http://www.w3.org/2000/svg">
<circle cx="21.5" cy="21.5" r="21.5" fill="#223039"/>
<path d="M30.9362 20.8582H30.5842V18.2934C30.5842 17.1467 29.6335 16.2207 28.4735 16.2207H28.157L28.1605 15.3309V15.3305C28.1605 14.5394 27.5061 13.9 26.7045 13.9H14.6483C13.6954 13.9 12.9124 14.6532 12.9 15.5929L12.9 15.5929V15.5943V15.5943V15.5944V15.5944V15.5944V15.5945V15.5945V15.5946V15.5946V15.5947V15.5947V15.5948V15.5948V15.5948V15.5949V15.5949V15.595V15.595V15.5951V15.5951V15.5952V15.5952V15.5953V15.5953V15.5953V15.5954V15.5954V15.5955V15.5955V15.5956V15.5956V15.5957V15.5957V15.5957V15.5958V15.5958V15.5959V15.5959V15.596V15.596V15.5961V15.5961V15.5961V15.5962V15.5962V15.5963V15.5963V15.5964V15.5964V15.5965V15.5965V15.5966V15.5966V15.5966V15.5967V15.5967V15.5968V15.5968V15.5969V15.5969V15.597V15.597V15.597V15.5971V15.5971V15.5972V15.5972V15.5973V15.5973V15.5974V15.5974V15.5974V15.5975V15.5975V15.5976V15.5976V15.5977V15.5977V15.5978V15.5978V15.5978V15.5979V15.5979V15.598V15.598V15.5981V15.5981V15.5982V15.5982V15.5983V15.5983V15.5983V15.5984V15.5984V15.5985V15.5985V15.5986V15.5986V15.5987V15.5987V15.5987V15.5988V15.5988V15.5989V15.5989V15.599V15.599V15.5991V15.5991V15.5991V15.5992V15.5992V15.5993V15.5993V15.5994V15.5994V15.5995V15.5995V15.5996V15.5996V15.5996V15.5997V15.5997V15.5998V15.5998V15.5999V15.5999V15.6V15.6V15.6V15.6001V15.6001V15.6002V15.6002V15.6003V15.6003V15.6004V15.6004V15.6004V15.6005V15.6005V15.6006V15.6006V15.6007V15.6007V15.6008V15.6008V15.6009V15.6009V15.6009V15.601V15.601V15.6011V15.6011V15.6012V15.6012V15.6013V15.6013V15.6013V15.6014V15.6014V15.6015V15.6015V15.6016V15.6016V15.6017V15.6017V15.6017V15.6018V15.6018V15.6019V15.6019V15.602V15.602V15.6021V15.6021V15.6022V15.6022V15.6022V15.6023V15.6023V15.6024V15.6024V15.6025V15.6025V15.6026V15.6026V15.6026V15.6027V15.6027V15.6028V15.6028V15.6029V15.6029V15.603V15.603V15.603V15.6031V15.6031V15.6032V15.6032V15.6033V15.6033V15.6034V15.6034V15.6034V15.6035V15.6035V15.6036V15.6036V15.6037V15.6037V15.6038V15.6038V15.6039V15.6039V15.6039V15.604V15.604V15.6041V15.6041V15.6042V15.6042V15.6043V15.6043V15.6043V15.6044V15.6044V15.6045V15.6045V15.6046V15.6046V15.6047V15.6047V15.6047V15.6048V15.6048V15.6049V15.6049V15.605V15.605V15.6051V15.6051V15.6052V15.6052V15.6052V15.6053V15.6053V15.6054V15.6054V15.6055V15.6055V15.6056V15.6056V15.6056V15.6057V15.6057V15.6058V15.6058V15.6059V15.6059V15.606V15.606V15.606V15.6061V15.6061V15.6062V15.6062V15.6063V15.6063V15.6064V15.6064V15.6065V15.6065V15.6065V15.6066V15.6066V15.6067V15.6067V15.6068V15.6068V15.6069V15.6069V15.6069V15.607V15.607V15.6071V15.6071V15.6072V15.6072V15.6073V15.6073V15.6073V15.6074V15.6074V15.6075V15.6075V15.6076V15.6076V15.6077V15.6077V15.6078V15.6078V15.6078V15.6079V15.6079V15.608V15.608V15.6081V15.6081V15.6082V15.6082V15.6082V15.6083V15.6083V15.6084V15.6084V15.6085V15.6085V15.6086V15.6086V15.6086V15.6087V15.6087V15.6088V15.6088V15.6089V15.6089V15.609V15.609V15.6091V15.6091V15.6091V15.6092V15.6092V15.6093V15.6093V15.6094V15.6094V15.6095V15.6095V15.6095V15.6096V15.6096V15.6097V15.6097V15.6098V15.6098V15.6099V15.6099V15.6099V15.61V15.61V15.6101V15.6101V15.6102V15.6102V15.6103V15.6103V15.6103V15.6104V15.6104V15.6105V15.6105V15.6106V15.6106V15.6107V15.6107V15.6108V15.6108V15.6108V15.6109V15.6109V15.611V15.611V15.6111V15.6111V15.6112V15.6112V15.6112V15.6113V15.6113V15.6114V15.6114V15.6115V15.6115V15.6116V15.6116V15.6116V15.6117V15.6117V15.6118V15.6118V15.6119V15.6119V15.612V15.612V15.6121V15.6121V15.6121V15.6122V15.6122V15.6123V15.6123V15.6124V15.6124V15.6125V15.6125V15.6125V15.6126V15.6126V15.6127V15.6127V15.6128V15.6128V15.6129V15.6129V15.6129V15.613V15.613V15.6131V15.6131V15.6132V15.6132V15.6133V15.6133V15.6134V15.6134V15.6134V15.6135V15.6135V15.6136V15.6136V15.6137V15.6137V15.6138V15.6138V15.6138V15.6139V15.6139V15.614V15.614V15.6141V15.6141V15.6142V15.6142V15.6142V15.6143V15.6143V15.6144V15.6144V15.6145V15.6145V15.6146V15.6146V15.6147V15.6147V15.6147V15.6148V15.6148V15.6149V15.6149V15.615V15.615V15.6151V15.6151V15.6151V15.6152V15.6152V15.6153V15.6153V15.6154V15.6154V15.6155V15.6155V15.6155V15.6156V15.6156V15.6157V15.6157V15.6158V15.6158V15.6159V15.6159V15.6159V15.616V15.616V15.6161V15.6161V15.6162V15.6162V15.6163V15.6163V15.6164V15.6164V15.6164V15.6165V15.6165V15.6166V15.6166V15.6167V15.6167V15.6168V15.6168V15.6168V15.6169V15.6169V15.617V15.617V15.6171V15.6171V15.6172V15.6172V28.6695C12.9 29.4606 13.5544 30.1 14.356 30.1H28.4774C29.6415 30.1 30.5881 29.1699 30.5881 28.0272V25.4587H30.9401C31.578 25.4587 32.1 24.9492 32.1 24.3188L32.1 21.9981L32.1 21.9974C32.0957 21.3676 31.5743 20.8582 30.9362 20.8582ZM14.6483 15.0176H26.7045C26.8821 15.0176 27.0252 15.1592 27.0253 15.3265C27.0253 15.3265 27.0253 15.3266 27.0253 15.3266L27.0218 16.2207H14.6483C14.3081 16.2207 14.0352 15.9502 14.0352 15.621C14.0352 15.2912 14.3089 15.0176 14.6483 15.0176ZM29.449 28.0234C29.449 28.5475 29.0124 28.9786 28.4735 28.9786H14.3521C14.175 28.9786 14.0313 28.8375 14.0313 28.6657V17.2282C14.2237 17.2995 14.4308 17.3382 14.6483 17.3382H28.4735C29.0124 17.3382 29.449 17.7693 29.449 18.2934V20.8582H26.3577C25.7197 20.8582 25.1978 21.3676 25.1978 21.9981V24.3188C25.1978 24.9492 25.7197 25.4587 26.3577 25.4587H29.449V28.0234ZM30.9609 24.3188C30.9609 24.326 30.9583 24.3309 30.9548 24.3344C30.9513 24.3378 30.9453 24.3411 30.9362 24.3411H26.3616C26.3525 24.3411 26.3465 24.3378 26.343 24.3344C26.3395 24.3309 26.3369 24.326 26.3369 24.3188V21.9981C26.3369 21.9938 26.3388 21.9881 26.3437 21.9832C26.3484 21.9785 26.3545 21.9757 26.3616 21.9757H30.9362C30.9424 21.9757 30.949 21.9783 30.9541 21.9832C30.9589 21.9878 30.9609 21.993 30.9609 21.9981V24.3188Z" fill="#38C0EC" stroke="#38C0EC" stroke-width="0.2"/>
</svg>
