<svg width="43" height="43" viewBox="0 0 43 43" fill="none" xmlns="http://www.w3.org/2000/svg">
<circle cx="21.5" cy="21.5" r="21.5" fill="#223039"/>
<path fill-rule="evenodd" clip-rule="evenodd" d="M27.2784 15.7165C28.7165 17.1526 29.6524 18.9571 29.991 20.9402C30.0404 21.2175 29.8502 21.4834 29.5725 21.5252C29.5694 21.5256 29.5664 21.526 29.5634 21.5264C29.5366 21.5297 29.5123 21.5328 29.485 21.5328C29.2377 21.5328 29.0208 21.3581 28.979 21.1073C28.6784 19.337 27.8415 17.7224 26.5556 16.4383C25.2697 15.1581 23.6528 14.3185 21.88 14.0184C21.5985 13.969 21.4121 13.7068 21.4577 13.4257C21.5072 13.1484 21.7697 12.9584 22.0474 13.0078C24.0333 13.3459 25.8404 14.2805 27.2784 15.7165ZM26.2327 24.1503C25.8636 23.7666 25.4185 23.5614 24.9468 23.5614C24.4789 23.5614 24.0299 23.7628 23.6457 24.1465L22.4435 25.3431C22.3781 25.308 22.3128 25.2745 22.2485 25.2416C22.2155 25.2247 22.1828 25.2079 22.1506 25.1912C22.0136 25.1228 21.8843 25.0582 21.7739 24.9898C20.6478 24.2756 19.6244 23.3449 18.6429 22.1406C18.1674 21.5403 17.8478 21.0351 17.6157 20.5222C17.8976 20.2648 18.1608 19.998 18.4166 19.7388L18.4983 19.656C18.5516 19.6029 18.6048 19.5487 18.658 19.4946L18.6581 19.4946L18.6582 19.4945C18.7114 19.4404 18.7647 19.3863 18.8179 19.3331C19.6168 18.5353 19.6168 17.502 18.8179 16.7042L17.7793 15.667L17.7793 15.667C17.6614 15.5493 17.5396 15.4277 17.4255 15.3061C17.1972 15.0706 16.9576 14.8275 16.7103 14.5995C16.3413 14.2348 15.8999 14.0411 15.4358 14.0411C14.9717 14.0411 14.5228 14.2348 14.1423 14.5995L14.1347 14.6071L12.8412 15.9102C12.3542 16.3965 12.0765 16.9891 12.0157 17.6767C11.9243 18.786 12.2515 19.8194 12.5026 20.4956C13.1189 22.1558 14.0396 23.6944 15.413 25.3431C17.0793 27.33 19.0842 28.899 21.3745 30.0045C22.2495 30.4186 23.4174 30.9087 24.7223 30.9923C24.8022 30.9961 24.8859 30.9999 24.962 30.9999C25.8408 30.9999 26.5789 30.6846 27.1571 30.0577C27.159 30.0539 27.1619 30.0511 27.1648 30.0482C27.1662 30.0468 27.1677 30.0453 27.1691 30.0436C27.1703 30.0422 27.1715 30.0406 27.1724 30.0387C27.3555 29.8171 27.5648 29.6151 27.785 29.4024L27.8381 29.3511C28.0017 29.1954 28.1691 29.032 28.3327 28.861C28.7093 28.4697 28.9072 28.0139 28.9072 27.5466C28.9072 27.0755 28.7055 26.6234 28.3213 26.2435L26.2327 24.1503ZM27.2173 28.5297L27.2172 28.5298L27.1305 28.6141C26.8832 28.8496 26.6321 29.0966 26.3963 29.3739C26.012 29.7842 25.5593 29.978 24.9658 29.978C24.9087 29.978 24.8479 29.978 24.7908 29.9742C23.6609 29.902 22.6109 29.4613 21.8234 29.0852C19.6701 28.0443 17.7793 26.5664 16.2081 24.6935C14.9108 23.1321 14.0434 21.6885 13.4689 20.1385C13.1151 19.1925 12.9858 18.4555 13.0428 17.7603C13.0809 17.3158 13.2521 16.9473 13.5678 16.632L14.8651 15.3365C15.0516 15.1618 15.2494 15.0668 15.4434 15.0668C15.6831 15.0668 15.8771 15.2112 15.9989 15.3327L16.0103 15.3441C16.2423 15.5607 16.463 15.7848 16.6951 16.0242C16.7545 16.0854 16.8149 16.1467 16.8758 16.2084L16.8758 16.2085C16.9357 16.2693 16.9961 16.3305 17.0565 16.3927L18.0951 17.4298C18.4983 17.8325 18.4983 18.2048 18.0951 18.6075C18.0582 18.6443 18.0217 18.6812 17.9853 18.7179L17.9853 18.718C17.913 18.791 17.8413 18.8634 17.7679 18.9342C17.4483 19.2609 17.144 19.5648 16.813 19.8612C16.8103 19.8639 16.8076 19.8661 16.8051 19.8681C16.8005 19.8719 16.7964 19.8753 16.794 19.8802C16.4668 20.2069 16.5277 20.526 16.5961 20.7425L16.6076 20.7767C16.8777 21.4302 17.2581 22.0456 17.8364 22.7788L17.8402 22.7826C18.8902 24.0743 19.9973 25.081 21.2185 25.8522C21.3745 25.951 21.5342 26.0308 21.6864 26.1068L21.6864 26.1068L21.6865 26.1068C21.8234 26.1752 21.9527 26.2397 22.0631 26.3081C22.0707 26.3119 22.0783 26.3166 22.0859 26.3214C22.0935 26.3261 22.1011 26.3309 22.1087 26.3347C22.2381 26.3993 22.3598 26.4297 22.4853 26.4297C22.8011 26.4297 22.9989 26.2321 23.0636 26.1675L24.3647 24.8683C24.4941 24.7391 24.6995 24.5833 24.9392 24.5833C25.1751 24.5833 25.3691 24.7315 25.487 24.8607L25.4946 24.8683L27.5908 26.9615C27.9827 27.349 27.9827 27.7479 27.5946 28.1506C27.4728 28.2816 27.3484 28.4024 27.2173 28.5297ZM21.7286 17.2818C22.7253 17.4489 23.6308 17.92 24.3536 18.6418C25.0764 19.3636 25.5444 20.2678 25.7156 21.2631C25.7574 21.5139 25.9743 21.6886 26.2216 21.6886C26.2489 21.6886 26.2732 21.6856 26.2999 21.6822H26.3L26.3091 21.681C26.5906 21.6355 26.777 21.3695 26.7313 21.0884C26.5259 19.8841 25.9553 18.7862 25.084 17.9162C24.2128 17.0462 23.1134 16.4764 21.9074 16.2712C21.6259 16.2256 21.3633 16.4118 21.3139 16.6891C21.2644 16.9665 21.447 17.2362 21.7286 17.2818Z" fill="#38C0EC"/>
</svg>
