<svg width="43" height="43" viewBox="0 0 43 43" fill="none" xmlns="http://www.w3.org/2000/svg">
<circle cx="21.5" cy="21.5" r="21.5" fill="#223039"/>
<path d="M30.9913 15.9508C30.9913 15.871 30.9739 15.7913 30.939 15.7159C30.8693 15.5652 30.7343 15.4633 30.5862 15.4323L21.7134 11.0532C21.5697 10.9823 21.3998 10.9823 21.2561 11.0532L12.2962 15.4721C12.122 15.5564 12.0087 15.7336 12 15.9331V15.9375C12 15.942 12 15.9464 12 15.9553V27.0447C12 27.2486 12.1133 27.4348 12.2962 27.5234L21.2561 31.9424C21.2604 31.9424 21.2604 31.9424 21.2648 31.9468C21.2779 31.9512 21.2909 31.9557 21.304 31.9645C21.3083 31.9645 21.3127 31.969 21.3214 31.969C21.3345 31.9734 21.3475 31.9778 21.3606 31.9823C21.365 31.9823 21.3693 31.9867 21.3737 31.9867C21.3867 31.9911 21.4042 31.9911 21.4172 31.9956C21.4216 31.9956 21.426 31.9956 21.4303 31.9956C21.4477 31.9956 21.4695 32 21.4869 32C21.5044 32 21.5261 32 21.5436 31.9956C21.5479 31.9956 21.5523 31.9956 21.5566 31.9956C21.5697 31.9956 21.5871 31.9911 21.6002 31.9867C21.6045 31.9867 21.6089 31.9823 21.6133 31.9823C21.6263 31.9778 21.6394 31.9734 21.6525 31.969C21.6568 31.969 21.6612 31.9645 21.6699 31.9645C21.6829 31.9601 21.696 31.9557 21.7091 31.9468C21.7134 31.9468 21.7134 31.9468 21.7178 31.9424L30.7038 27.5101C30.8824 27.4215 31 27.2353 31 27.0315V15.9641C30.9913 15.9597 30.9913 15.9553 30.9913 15.9508ZM21.4826 12.1214L29.2533 15.9553L26.3916 17.3691L18.6208 13.5352L21.4826 12.1214ZM21.4826 19.7892L13.7118 15.9553L17.423 14.1247L25.1937 17.9586L21.4826 19.7892ZM13.0454 16.8107L20.9599 20.7155V30.6127L13.0454 26.7079V16.8107ZM22.0053 30.6127V20.7155L25.7208 18.8805V21.469C25.7208 21.7615 25.956 22.0008 26.2435 22.0008C26.5309 22.0008 26.7662 21.7615 26.7662 21.469V18.362L29.9459 16.793V26.6902L22.0053 30.6127Z" fill="#38C0EC"/>
</svg>
