<svg width="43" height="43" viewBox="0 0 43 43" fill="none" xmlns="http://www.w3.org/2000/svg">
<circle cx="21.5" cy="21.5" r="21.5" fill="#223039"/>
<path fill-rule="evenodd" clip-rule="evenodd" d="M28.9622 18.2377L29.4391 22.345L19.6359 32.1269L11 23.5098L20.803 13.7278L26.3136 14.3649L26.3265 14.3517L26.3362 14.3416C26.9639 13.7152 27.7107 13.2702 28.4388 13.0885C29.2608 12.8834 30.0058 13.0386 30.4825 13.5142C31.5988 14.6281 30.8261 16.8899 28.9622 18.2377ZM29.6531 14.3416C29.4749 14.1638 29.136 14.1208 28.7233 14.2237C28.3918 14.3064 28.0397 14.478 27.7049 14.7145L28.6642 15.6717L28.8008 16.8479C29.6896 15.9753 30.0871 14.7746 29.6531 14.3416ZM25.4869 15.4474L21.2313 14.9555L12.6585 23.5098L19.6359 30.472L28.2089 21.9178L27.5464 16.2112L26.9505 15.6166L26.7904 15.598C26.5118 15.9639 26.3101 16.3564 26.2181 16.7237C26.1149 17.1355 26.158 17.4737 26.3362 17.6515L27.1655 18.4789L26.3362 19.3064L23.8485 16.824L24.6777 15.9966L25.0892 16.4073C25.173 16.0865 25.3079 15.7628 25.4869 15.4474ZM15.7145 22.9844C15.7145 22.0165 16.5037 21.229 17.4735 21.229C18.4435 21.229 19.2327 22.0165 19.2327 22.9844C19.2327 23.9521 18.4435 24.7396 17.4735 24.7396C16.5037 24.7396 15.7145 23.9521 15.7145 22.9844ZM16.8873 22.9844C16.8873 23.3069 17.1502 23.5694 17.4735 23.5694C17.797 23.5694 18.0599 23.3069 18.0599 22.9844C18.0599 22.6617 17.7968 22.3993 17.4735 22.3993C17.1502 22.3993 16.8873 22.6617 16.8873 22.9844ZM23.3375 24.7396C24.3075 24.7396 25.0967 23.9521 25.0967 22.9844C25.0967 22.0165 24.3075 21.229 23.3375 21.229C22.3675 21.229 21.5785 22.0165 21.5785 22.9844C21.5785 23.9521 22.3675 24.7396 23.3375 24.7396ZM23.3375 22.3993C23.6609 22.3993 23.9239 22.6617 23.9239 22.9844C23.9239 23.3069 23.6609 23.5694 23.3375 23.5694C23.0142 23.5694 22.7511 23.3069 22.7511 22.9844C22.7511 22.6617 23.0142 22.3993 23.3375 22.3993ZM21.5699 19.5699L20.4131 19.3776L19.2403 26.3986L20.3971 26.5911L21.5699 19.5699Z" fill="#38C0EC"/>
</svg>
