<svg width="52" height="17" viewBox="0 0 52 17" fill="none" xmlns="http://www.w3.org/2000/svg">
<path d="M0 2C0 0.89543 0.895431 0 2 0H44.3316C44.9944 0 45.6142 0.32838 45.9864 0.876802L50.6909 7.80801C51.1742 8.51994 51.1479 9.46113 50.6257 10.145L45.9917 16.2138C45.6133 16.7093 45.0255 17 44.4021 17H2C0.895428 17 0 16.1046 0 15V2Z" fill="#D14040"/>
<path d="M13.3711 12L12.6582 10.0176H9.92871L9.23047 12H8L10.6709 4.83203H11.9404L14.6113 12H13.3711ZM12.3506 9.01172L11.6816 7.06836C11.6328 6.93815 11.5645 6.73307 11.4766 6.45312C11.3919 6.17318 11.3333 5.9681 11.3008 5.83789C11.2129 6.23828 11.0843 6.67611 10.915 7.15137L10.2705 9.01172H12.3506ZM18.5813 6.59961H19.841L17.6096 9.20215L20.0314 12H18.7131L16.3791 9.26074V12H15.2316V6.59961H16.3791V9.22168L18.5813 6.59961ZM25.5346 11.1113H26.3158V13.8994H25.2367V12H20.725V6.59961H21.8725V11.0918H24.3871V6.59961H25.5346V11.1113ZM28.1959 6.59961V9.36816C28.1959 9.69043 28.1699 10.1641 28.1178 10.7891L30.8277 6.59961H32.2291V12H31.1256V9.28027C31.1256 9.13053 31.1337 8.88802 31.15 8.55273C31.1695 8.21745 31.1858 7.97331 31.1988 7.82031L28.4986 12H27.0973V6.59961H28.1959ZM34.2166 12H32.9324L34.4363 9.78809C34.0717 9.68392 33.7853 9.49837 33.577 9.23145C33.3686 8.96126 33.2645 8.6276 33.2645 8.23047C33.2645 7.7194 33.4467 7.32064 33.8113 7.03418C34.1759 6.74447 34.674 6.59961 35.3055 6.59961H37.7664V12H36.6141V9.91992H35.5252L34.2166 12ZM34.3826 8.24023C34.3826 8.51693 34.4868 8.72526 34.6951 8.86523C34.9067 9.00195 35.1899 9.07031 35.5447 9.07031H36.6141V7.46875H35.3641C35.0516 7.46875 34.8091 7.53548 34.6365 7.66895C34.4673 7.80241 34.3826 7.99284 34.3826 8.24023Z" fill="white"/>
</svg>
