<svg width="550" height="272" viewBox="0 0 550 272" fill="none" xmlns="http://www.w3.org/2000/svg">
<path fill-rule="evenodd" clip-rule="evenodd" d="M291.453 179.407C273.249 232.853 222.623 271.298 163.017 271.298C117.575 271.298 77.3517 248.953 52.7354 214.652C75.9954 239.863 109.314 255.654 146.321 255.654C216.627 255.654 273.622 198.659 273.622 128.353C273.622 58.0461 216.627 1.05134 146.321 1.05134L146.043 1.05163C151.604 0.357554 157.268 0 163.017 0C235.079 0 294.017 56.1923 298.404 127.15H276.136V179.407H291.453Z" fill="#434343"/>
<path d="M83.9397 98.5425H104.365V193.419H83.9397V156.259H27.936V193.419H7.51109V98.5425H27.936V135.703H83.9397V98.5425Z" fill="#434343"/>
<path d="M253.051 91.269V103.335H224.777V92.7097H151.3V115.401H226.398C233.722 115.401 239.965 118.042 245.127 123.325C250.41 128.488 253.051 134.731 253.051 142.055V167.627C253.051 174.951 250.41 181.254 245.127 186.537C239.965 191.699 233.722 194.281 226.398 194.281H150.04C142.716 194.281 136.413 191.699 131.13 186.537C125.968 181.374 123.386 175.071 123.386 167.627V155.561H151.3V166.187H224.777V143.495H150.04C142.716 143.495 136.413 140.914 131.13 135.751C125.968 130.589 123.386 124.286 123.386 116.842V91.269C123.386 83.8253 125.968 77.5221 131.13 72.3595C136.413 67.1969 142.716 64.6156 150.04 64.6156H226.398C233.722 64.6156 239.965 67.257 245.127 72.5396C250.41 77.7022 253.051 83.9453 253.051 91.269Z" fill="#434343"/>
<path d="M325.616 121.107C330.536 121.107 334.717 122.87 338.161 126.396C341.687 129.921 343.449 134.103 343.449 138.94V174.607C343.449 179.445 341.687 183.626 338.161 187.152C334.717 190.678 330.536 192.44 325.616 192.44H289.949V220.728H271.132V121.107H325.616ZM289.949 139.924V173.623H324.632V139.924H289.949ZM370.269 121.107H406.919C411.839 121.107 416.02 122.87 419.464 126.396C422.99 129.921 424.753 134.103 424.753 138.94V174.607C424.753 179.445 422.99 183.626 419.464 187.152C416.02 190.678 411.839 192.44 406.919 192.44H370.269C365.431 192.44 361.249 190.678 357.724 187.152C354.198 183.626 352.435 179.445 352.435 174.607V138.94C352.435 134.103 354.198 129.921 357.724 126.396C361.249 122.87 365.431 121.107 370.269 121.107ZM371.253 139.924V173.623H405.935V139.924H371.253ZM452.307 121.107H491.663V139.924H453.168V192.44H434.35V138.94C434.35 134.103 436.113 129.921 439.639 126.396C443.165 122.87 447.387 121.107 452.307 121.107ZM544.47 139.924H518.028V173.623H544.47V192.44H517.167C512.165 192.44 507.902 190.678 504.376 187.152C500.932 183.626 499.211 179.445 499.211 174.607V99.953H518.028V121.107H544.47V139.924Z" fill="#434343"/>
</svg>
