<svg width="101" height="50" viewBox="0 0 101 50" fill="none" xmlns="http://www.w3.org/2000/svg">
<path fill-rule="evenodd" clip-rule="evenodd" d="M52.9972 33.2909C49.6871 43.0093 40.4813 50 29.6428 50C21.3799 50 14.066 45.9371 9.58984 39.7001C13.8194 44.2842 19.8778 47.1553 26.6067 47.1553C39.3911 47.1553 49.7548 36.7916 49.7548 24.0072C49.7548 11.2229 39.3911 0.859127 26.6067 0.859127L26.5565 0.859181C27.5675 0.73298 28.5976 0.667969 29.6428 0.667969C42.7464 0.667969 53.4635 10.8859 54.2612 23.7886H50.2119V33.2909H52.9972Z" fill="#3a6189"/>
<path d="M15.2634 18.5848H18.9774V35.837H15.2634V29.0799H5.0798V35.837H1.3658V18.5848H5.0798V25.3419H15.2634V18.5848Z" fill="#3a6189"/>
<path d="M46.0142 17.716V19.9101H40.8729V17.978H27.5121V22.1041H41.1677C42.4994 22.1041 43.6346 22.5844 44.5734 23.545C45.534 24.4838 46.0142 25.619 46.0142 26.9507V31.6008C46.0142 32.9325 45.534 34.0787 44.5734 35.0393C43.6346 35.978 42.4994 36.4474 41.1677 36.4474H27.2829C25.9512 36.4474 24.805 35.978 23.8444 35.0393C22.9057 34.1005 22.4363 32.9544 22.4363 31.6008V29.4068H27.5121V31.3388H40.8729V27.2127H27.2829C25.9512 27.2127 24.805 26.7433 23.8444 25.8046C22.9057 24.8658 22.4363 23.7197 22.4363 22.3661V17.716C22.4363 16.3625 22.9057 15.2163 23.8444 14.2776C24.805 13.3388 25.9512 12.8695 27.2829 12.8695H41.1677C42.4994 12.8695 43.6346 13.3497 44.5734 14.3103C45.534 15.2491 46.0142 16.3843 46.0142 17.716Z" fill="#F9F9F9"/>
<path d="M59.209 22.9607C60.1036 22.9607 60.864 23.2812 61.4902 23.9223C62.1312 24.5634 62.4518 25.3238 62.4518 26.2034V32.689C62.4518 33.5686 62.1312 34.329 61.4902 34.9701C60.864 35.6112 60.1036 35.9317 59.209 35.9317H52.7235V41.0754H49.3018V22.9607H59.209ZM52.7235 26.3824V32.5101H59.0301V26.3824H52.7235ZM67.3285 22.9607H73.993C74.8875 22.9607 75.6479 23.2812 76.2741 23.9223C76.9152 24.5634 77.2357 25.3238 77.2357 26.2034V32.689C77.2357 33.5686 76.9152 34.329 76.2741 34.9701C75.6479 35.6112 74.8875 35.9317 73.993 35.9317H67.3285C66.4489 35.9317 65.6885 35.6112 65.0474 34.9701C64.4063 34.329 64.0858 33.5686 64.0858 32.689V26.2034C64.0858 25.3238 64.4063 24.5634 65.0474 23.9223C65.6885 23.2812 66.4489 22.9607 67.3285 22.9607ZM67.5074 26.3824V32.5101H73.8141V26.3824H67.5074ZM82.2461 22.9607H89.4026V26.3824H82.4027V35.9317H78.981V26.2034C78.981 25.3238 79.3015 24.5634 79.9426 23.9223C80.5837 23.2812 81.3516 22.9607 82.2461 22.9607ZM99.0049 26.3824H94.1966V32.5101H99.0049V35.9317H94.0401C93.1306 35.9317 92.3554 35.6112 91.7143 34.9701C91.0881 34.329 90.775 33.5686 90.775 32.689V19.1141H94.1966V22.9607H99.0049V26.3824Z" fill="#F9F9F9"/>
</svg>
