<svg width="14" height="12" viewBox="0 0 14 12" fill="none" xmlns="http://www.w3.org/2000/svg">
<path d="M6.04894 0.927051C6.3483 0.00574017 7.6517 0.00574017 7.95106 0.927051L8.68386 3.18237C8.81773 3.5944 9.20168 3.87336 9.63491 3.87336H12.0063C12.975 3.87336 13.3778 5.11297 12.5941 5.68237L10.6756 7.07624C10.3251 7.33088 10.1784 7.78225 10.3123 8.19427L11.0451 10.4496C11.3445 11.3709 10.29 12.137 9.50628 11.5676L7.58778 10.1738C7.2373 9.91912 6.7627 9.91912 6.41221 10.1738L4.49372 11.5676C3.71001 12.137 2.65553 11.3709 2.95488 10.4496L3.68768 8.19427C3.82155 7.78225 3.6749 7.33088 3.32441 7.07624L1.40592 5.68237C0.622204 5.11297 1.02498 3.87336 1.9937 3.87336H4.36509C4.79832 3.87336 5.18227 3.5944 5.31614 3.18237L6.04894 0.927051Z" fill="#FFB800"/>
</svg>
