<svg width="20" height="20" viewBox="0 0 20 20" fill="none" xmlns="http://www.w3.org/2000/svg">
<path d="M19.7882 5.76098C19.9647 5.99064 20.0308 6.26623 19.9868 6.58776L19.1484 11.5944C19.1189 11.8547 19.0049 12.069 18.8064 12.2374C18.6078 12.4058 18.3835 12.4901 18.1334 12.4901H5.90991L5.6672 13.9139H17.3171C17.5965 13.9139 17.8391 14.0173 18.0452 14.224C18.2511 14.4307 18.354 14.6871 18.354 14.9933C18.354 15.2996 18.2511 15.556 18.0452 15.7627C17.8391 15.9694 17.5965 16.0727 17.3171 16.0727H4.43161C4.12271 16.0727 3.85795 15.9426 3.63731 15.6824C3.43137 15.4221 3.35047 15.1235 3.3946 14.7868L3.9462 11.6634L3.10777 2.89031L0.724846 2.10947C0.445368 2.0176 0.243114 1.84149 0.118084 1.58125C-0.0069461 1.32093 -0.0326875 1.04538 0.0408594 0.754475C0.129116 0.463572 0.301951 0.253051 0.559365 0.12291C0.81678 -0.00723002 1.07787 -0.0340237 1.34264 0.0425296L4.38748 1.05303C4.57871 1.11428 4.73683 1.2291 4.86186 1.39752C4.98689 1.56594 5.06412 1.75736 5.09353 1.97171L5.27005 3.71712L19.0822 5.32474C19.3911 5.37056 19.6264 5.51601 19.7882 5.76098ZM5.9982 16.6699C6.43948 16.6699 6.81457 16.8306 7.12347 17.1522C7.43236 17.4736 7.58681 17.8642 7.58681 18.3235C7.58681 18.7827 7.43236 19.1771 7.12347 19.5062C6.81457 19.8354 6.43948 20 5.9982 20C5.55692 20 5.18183 19.8354 4.87293 19.5062C4.56403 19.1771 4.40958 18.7828 4.40958 18.3235C4.40958 17.8642 4.56403 17.4737 4.87293 17.1522C5.18179 16.8306 5.55688 16.6699 5.9982 16.6699ZM15.4195 16.6699C15.8607 16.6699 16.2359 16.8306 16.5448 17.1522C16.8536 17.4736 17.0082 17.8642 17.0082 18.3235C17.0082 18.7827 16.8537 19.1771 16.5448 19.5062C16.2359 19.8354 15.8607 20 15.4195 20C14.9782 20 14.6031 19.8354 14.2943 19.5062C13.9854 19.1771 13.8308 18.7828 13.8308 18.3235C13.8308 17.8642 13.9853 17.4737 14.2943 17.1522C14.6032 16.8306 14.9782 16.6699 15.4195 16.6699Z" fill="white"/>
</svg>
