<svg width="53" height="27" viewBox="0 0 53 27" fill="none" xmlns="http://www.w3.org/2000/svg">
<path fill-rule="evenodd" clip-rule="evenodd" d="M51.5557 26.9335C51.5399 26.9375 51.5242 26.9415 51.5082 26.9447C51.493 26.9476 51.4777 26.9496 51.4623 26.9516L51.4497 26.9533L51.4317 26.956L51.4316 26.956L51.4316 26.956C51.4206 26.9578 51.4096 26.9595 51.3983 26.9606C51.361 26.9641 51.3236 26.9661 51.2861 26.9661H15.4744C14.8463 26.9661 14.3375 26.4671 14.3375 25.8513V19.4256H8.46358C7.83557 19.4256 7.3267 18.9266 7.3267 18.3108C7.3267 17.695 7.83557 17.1961 8.46358 17.1961H14.3375V15.834C14.3375 15.2182 14.8463 14.7192 15.4744 14.7192C16.1024 14.7192 16.6112 15.2182 16.6112 15.834V23.1599L26.5684 13.3965C26.6157 13.3502 26.6664 13.31 26.7192 13.2735L16.6114 4.49851V8.8974C16.6114 9.5132 16.1025 10.0122 15.4745 10.0122C14.8465 10.0122 14.3376 9.5132 14.3376 8.8974V2.02268C14.3376 2.0193 14.3379 2.01596 14.3381 2.01262L14.3385 2.00454C14.3388 1.98359 14.3402 1.96278 14.3417 1.94197L14.3425 1.93125C14.3434 1.91849 14.3443 1.90576 14.3458 1.89322C14.3482 1.87389 14.3516 1.85457 14.3549 1.83525L14.3573 1.82123L14.3573 1.8212L14.3573 1.82118C14.3595 1.80888 14.3616 1.79657 14.3643 1.78441C14.3675 1.77058 14.3712 1.75692 14.375 1.74323L14.3784 1.7309L14.3814 1.71999L14.3814 1.71995C14.3852 1.70622 14.389 1.69253 14.3934 1.67903C14.3982 1.66464 14.4037 1.65046 14.4093 1.63622L14.4093 1.63621L14.4122 1.62864L14.414 1.62398L14.414 1.62396L14.414 1.62395C14.4199 1.60838 14.4259 1.59262 14.4327 1.57736C14.4384 1.56464 14.4447 1.55211 14.4511 1.53962L14.4559 1.53025L14.4604 1.52132C14.4674 1.50721 14.4745 1.49316 14.4824 1.47941C14.4887 1.46828 14.4957 1.45742 14.5026 1.44655L14.5088 1.4369C14.5197 1.41966 14.5306 1.40257 14.5424 1.38592C14.5496 1.37584 14.5573 1.36594 14.565 1.35608L14.5651 1.35604L14.5651 1.35603L14.5712 1.34817C14.5846 1.33107 14.5979 1.31413 14.6121 1.29793C14.614 1.29585 14.6157 1.29368 14.6173 1.29149L14.6173 1.29147L14.6174 1.29146L14.6174 1.29145C14.6193 1.28897 14.6212 1.28647 14.6234 1.2841C14.6272 1.27978 14.6314 1.2758 14.6355 1.2718L14.6356 1.27178L14.6356 1.27178C14.6387 1.26876 14.6418 1.26574 14.6449 1.26255C14.6591 1.24769 14.6735 1.23297 14.6885 1.21885C14.7017 1.20637 14.7152 1.19463 14.7289 1.18288C14.7427 1.17114 14.7566 1.1597 14.7709 1.14855C14.7865 1.13636 14.8024 1.12477 14.8184 1.11362C14.8321 1.10425 14.8459 1.09504 14.86 1.08612C14.8771 1.07542 14.8944 1.06501 14.912 1.0552C14.9265 1.04703 14.9412 1.0393 14.9562 1.03172C14.9738 1.02295 14.9916 1.01448 15.0094 1.0066C15.0255 0.999465 15.0417 0.992926 15.0583 0.986534C15.0757 0.979697 15.0934 0.973454 15.1112 0.967508C15.1284 0.96186 15.1459 0.95651 15.1636 0.951605C15.1815 0.946551 15.1995 0.942092 15.2176 0.93793C15.2353 0.933917 15.2532 0.930201 15.2712 0.92708C15.2905 0.923661 15.3097 0.920837 15.3291 0.918459C15.3461 0.91623 15.3631 0.914297 15.3802 0.912959C15.4017 0.911176 15.4233 0.910283 15.4449 0.909689C15.4492 0.909561 15.4535 0.909269 15.4577 0.908977L15.4577 0.908977L15.4577 0.908976L15.4577 0.908976C15.4634 0.908589 15.469 0.908203 15.4747 0.908203H51.2864C51.9145 0.908203 52.4233 1.40717 52.4233 2.02297V25.8505C52.4233 25.8877 52.4214 25.9247 52.4176 25.9617C52.4166 25.9714 52.4151 25.9809 52.4135 25.9905L52.4111 26.0063L52.4092 26.0198L52.4092 26.0198L52.4091 26.0201C52.4068 26.0366 52.4045 26.0531 52.4012 26.0695C52.3988 26.0815 52.3957 26.0934 52.3925 26.1053L52.3882 26.122L52.3845 26.1367C52.3813 26.1496 52.3782 26.1625 52.3742 26.1752C52.3702 26.1881 52.3655 26.2008 52.3607 26.2135L52.356 26.2262L52.3509 26.2404C52.3464 26.253 52.3419 26.2656 52.3366 26.278C52.3317 26.2895 52.3263 26.3006 52.3208 26.3117L52.3145 26.3247L52.3083 26.3378L52.3083 26.3378C52.3021 26.3509 52.2959 26.3641 52.2889 26.3769C52.2834 26.3868 52.2775 26.3964 52.2715 26.406L52.2714 26.4061L52.263 26.4198L52.2556 26.432L52.2555 26.4322C52.2478 26.4451 52.2401 26.4579 52.2316 26.4704C52.2243 26.4811 52.2164 26.4913 52.2085 26.5016L52.1981 26.5151L52.1882 26.5284C52.1808 26.5384 52.1734 26.5484 52.1653 26.5581C52.1453 26.5818 52.1241 26.6044 52.1023 26.6264L52.0973 26.6319C52.095 26.6345 52.0928 26.6371 52.0903 26.6395C52.0881 26.6417 52.0858 26.6436 52.0835 26.6456L52.0777 26.6507C52.055 26.6724 52.0316 26.6935 52.0071 26.7132C51.9979 26.7206 51.9885 26.7273 51.9791 26.734L51.9662 26.7433L51.9534 26.7527L51.9534 26.7527C51.9416 26.7615 51.9299 26.7702 51.9175 26.7783C51.906 26.7859 51.8942 26.7927 51.8824 26.7995L51.8691 26.8072L51.8553 26.8154L51.8552 26.8154C51.8442 26.822 51.8333 26.8286 51.8218 26.8345C51.8104 26.8406 51.7986 26.846 51.7869 26.8513L51.7723 26.858L51.7591 26.8642C51.7465 26.8701 51.734 26.8761 51.721 26.8813C51.7095 26.8861 51.6979 26.8901 51.6862 26.8941L51.6861 26.8941L51.6861 26.8941L51.6719 26.899L51.6592 26.9036C51.6449 26.9087 51.6306 26.9138 51.616 26.9182C51.6051 26.9215 51.594 26.9241 51.5829 26.9267L51.5666 26.9307L51.5557 26.9335ZM40.1921 13.3966L50.1494 23.1601V3.13789H18.4736L33.3962 16.0927L46.187 5.45186C46.6662 5.05337 47.3835 5.11134 47.7894 5.58058C48.1956 6.05012 48.1368 6.75347 47.6581 7.15181L40.1724 13.3792L40.1806 13.3863C40.1845 13.3896 40.1884 13.393 40.1921 13.3966ZM28.3746 14.711C28.3232 14.8052 28.2575 14.8938 28.1764 14.9733L18.2192 24.7368H48.5414L38.5843 14.9733C38.5332 14.9233 38.4888 14.8693 38.4494 14.8128L34.116 18.4178C33.9035 18.5944 33.642 18.6826 33.3804 18.6826C33.1109 18.6826 32.8417 18.5889 32.6267 18.4024L28.3746 14.711ZM20.3376 13.6047H1.13688C0.508869 13.6047 0 13.1057 0 12.4899C0 11.8741 0.508869 11.3752 1.13688 11.3752H20.3376C20.9656 11.3752 21.4745 11.8741 21.4745 12.4899C21.4745 13.1057 20.9656 13.6047 20.3376 13.6047ZM3.12653 7.46123H11.7479C12.3759 7.46123 12.8848 6.96226 12.8848 6.34646C12.8848 5.73066 12.3759 5.23169 11.7479 5.23169H3.12653C2.49852 5.23169 1.98965 5.73066 1.98965 6.34646C1.98965 6.96226 2.49852 7.46123 3.12653 7.46123ZM1.13688 21.903H9.47402C10.102 21.903 10.6109 22.402 10.6109 23.0178C10.6109 23.6336 10.102 24.1325 9.47402 24.1325H1.13688C0.508869 24.1325 0 23.6336 0 23.0178C0 22.402 0.508869 21.903 1.13688 21.903Z" fill="#38C0EC"/>
</svg>
