<svg width="36" height="37" viewBox="0 0 36 37" fill="none" xmlns="http://www.w3.org/2000/svg">
<circle cx="17.8491" cy="18.5471" r="17.8491" fill="#2B363D"/>
<path d="M21.3036 11.4934L19.5115 11.4905C17.4981 11.4905 16.197 12.8537 16.197 14.9638V16.5652H14.3951C14.2394 16.5652 14.1133 16.6941 14.1133 16.8531V19.1734C14.1133 19.3324 14.2395 19.4611 14.3951 19.4611H16.197V25.3159C16.197 25.4749 16.3231 25.6037 16.4788 25.6037H18.8297C18.9854 25.6037 19.1115 25.4748 19.1115 25.3159V19.4611H21.2184C21.3741 19.4611 21.5002 19.3324 21.5002 19.1734L21.501 16.8531C21.501 16.7767 21.4713 16.7036 21.4185 16.6496C21.3657 16.5956 21.2938 16.5652 21.2191 16.5652H19.1115V15.2076C19.1115 14.5551 19.2638 14.2239 20.0961 14.2239L21.3033 14.2235C21.4589 14.2235 21.585 14.0946 21.585 13.9357V11.7812C21.585 11.6225 21.459 11.4937 21.3036 11.4934Z" fill="#638D9B"/>
</svg>
