<svg width="20" height="20" viewBox="0 0 20 20" fill="none" xmlns="http://www.w3.org/2000/svg">
<path fill-rule="evenodd" clip-rule="evenodd" d="M17.6269 2.37312C20.791 5.53728 20.7911 10.6858 17.6269 13.8499C14.9426 16.5343 10.9502 16.9408 7.83267 15.0707C7.83267 15.0707 7.60736 14.9363 7.41723 15.1265L3.28552 19.2581C2.46147 20.0823 1.30909 20.2784 0.578272 19.5474L0.452442 19.4217C-0.278378 18.6908 -0.0821913 17.5385 0.741922 16.7144L4.88233 12.5741C5.06377 12.3928 4.92943 12.1674 4.92943 12.1674C3.05925 9.0498 3.46579 5.05748 6.15017 2.37312C9.31429 -0.79104 14.4628 -0.79104 17.6269 2.37312ZM7.64847 3.87154C5.31046 6.20953 5.3104 10.0137 7.64841 12.3516C9.98647 14.6895 13.7906 14.6895 16.1286 12.3516C18.4666 10.0137 18.4666 6.20946 16.1286 3.87154C13.7906 1.53355 9.98647 1.53361 7.64847 3.87154ZM7.84048 7.56348C7.94711 7.60851 8.05773 7.6299 8.16655 7.6299C8.49289 7.6299 8.80305 7.43797 8.93828 7.11847C9.71124 5.29165 11.8266 4.4343 13.6534 5.20732C14.0795 5.38752 14.5709 5.18837 14.7512 4.76237C14.9315 4.33637 14.7322 3.84491 14.3063 3.66464C11.6287 2.53159 8.52858 3.78815 7.39553 6.46574C7.21526 6.89174 7.41454 7.3832 7.84048 7.56348Z" fill="white"/>
</svg>
