<svg width="36" height="37" viewBox="0 0 36 37" fill="none" xmlns="http://www.w3.org/2000/svg">
<circle cx="17.8491" cy="18.2453" r="17.8491" fill="#2B363D"/>
<path d="M24.9056 14.126C24.4167 14.3427 23.8921 14.4897 23.341 14.5553C23.9037 14.2182 24.3345 13.6835 24.5387 13.0484C24.0108 13.3605 23.4281 13.5872 22.8072 13.7101C22.31 13.1796 21.6029 12.8491 20.8185 12.8491C19.3136 12.8491 18.0935 14.0696 18.0935 15.574C18.0935 15.7874 18.1175 15.9958 18.164 16.195C15.8997 16.0813 13.8919 14.9962 12.548 13.3473C12.3131 13.7491 12.1795 14.2174 12.1795 14.7172C12.1795 15.6628 12.6609 16.4972 13.3914 16.9854C12.9448 16.9705 12.5248 16.8476 12.1571 16.6434V16.6774C12.1571 17.9975 13.0967 19.0992 14.3426 19.35C14.1143 19.4114 13.8736 19.4455 13.6246 19.4455C13.4486 19.4455 13.2785 19.428 13.1116 19.3948C13.4586 20.4783 14.4646 21.2662 15.6565 21.2878C14.7244 22.0184 13.5491 22.4526 12.2725 22.4526C12.0525 22.4526 11.8359 22.4394 11.6226 22.4153C12.8286 23.1899 14.2604 23.6416 15.7993 23.6416C20.8119 23.6416 23.5518 19.4886 23.5518 15.887L23.5427 15.5342C24.078 15.1522 24.5412 14.6723 24.9056 14.126Z" fill="#638D9B"/>
</svg>
