<svg width="16" height="20" viewBox="0 0 16 20" fill="none" xmlns="http://www.w3.org/2000/svg">
<path fill-rule="evenodd" clip-rule="evenodd" d="M12.2361 4.89066C12.2361 7.59168 10.3397 9.78127 8.00054 9.78127C5.66127 9.78127 3.76484 7.59168 3.76484 4.89066C3.76484 2.18959 4.38759 0 8.00054 0C11.6135 0 12.2361 2.18959 12.2361 4.89066ZM15.991 17.0513C15.9126 12.3461 15.2662 11.0053 10.3195 10.1567C10.3195 10.1567 9.62317 11.0001 8.00018 11.0001C6.37719 11.0001 5.68075 10.1567 5.68075 10.1567C0.78805 10.9961 0.102308 12.3169 0.0121423 16.8985C0.00474872 17.2726 0.00132243 17.2922 0 17.2488C0.000300553 17.3302 0.000661083 17.4807 0.000661083 17.7431C0.000661083 17.7431 1.17835 20 8.00018 20C14.8219 20 15.9997 17.7431 15.9997 17.7431C15.9997 17.5745 15.9998 17.4573 16 17.3775C15.9987 17.4043 15.996 17.3523 15.991 17.0513Z" fill="white"/>
</svg>
