<svg width="36" height="36" viewBox="0 0 36 36" fill="none" xmlns="http://www.w3.org/2000/svg">
<circle cx="17.8491" cy="17.8491" r="17.8491" fill="#2B363D"/>
<path d="M24.8265 22.3605C24.8085 22.3188 24.7916 22.2841 24.7759 22.2564C24.5166 21.7562 24.0212 21.1423 23.2899 20.4145L23.2744 20.3978L23.2667 20.3897L23.2588 20.3813H23.251C22.9191 20.0424 22.7089 19.8145 22.6209 19.6978C22.4598 19.4756 22.4237 19.2506 22.5118 19.0227C22.5739 18.8505 22.8075 18.4868 23.212 17.9311C23.4248 17.6366 23.5932 17.4006 23.7177 17.2228C24.6151 15.9449 25.0041 15.1283 24.8848 14.7727L24.8384 14.6896C24.8073 14.6396 24.7269 14.5938 24.5974 14.5521C24.4675 14.5104 24.3016 14.5036 24.0993 14.5313L21.8586 14.5479C21.8223 14.5341 21.7704 14.5354 21.7029 14.5521C21.6355 14.5688 21.6017 14.5772 21.6017 14.5772L21.5627 14.598L21.5318 14.6231C21.5058 14.6397 21.4773 14.6688 21.4462 14.7105C21.4152 14.7521 21.3893 14.8008 21.3685 14.8564C21.1246 15.5286 20.8472 16.1536 20.5359 16.7314C20.344 17.0759 20.1678 17.3745 20.0068 17.6273C19.846 17.88 19.7112 18.0662 19.6023 18.1855C19.4933 18.305 19.3949 18.4007 19.3066 18.473C19.2184 18.5453 19.151 18.5759 19.1044 18.5647C19.0577 18.5535 19.0137 18.5425 18.972 18.5314C18.8994 18.4813 18.8411 18.4133 18.797 18.3272C18.7528 18.2411 18.7231 18.1327 18.7075 18.0021C18.692 17.8715 18.6829 17.7591 18.6803 17.6646C18.6779 17.5703 18.679 17.4368 18.6842 17.2646C18.6896 17.0923 18.692 16.9757 18.692 16.9146C18.692 16.7034 18.6959 16.4743 18.7036 16.227C18.7115 15.9798 18.7178 15.7839 18.7231 15.6396C18.7284 15.4952 18.7309 15.3423 18.7309 15.1812C18.7309 15.0201 18.7217 14.8937 18.7036 14.802C18.6857 14.7104 18.6583 14.6215 18.6221 14.5353C18.5857 14.4492 18.5325 14.3826 18.4626 14.3353C18.3926 14.2881 18.3056 14.2506 18.202 14.2228C17.9271 14.1561 17.577 14.1201 17.1515 14.1145C16.1868 14.1034 15.5669 14.1701 15.292 14.3146C15.1831 14.3756 15.0845 14.459 14.9964 14.5645C14.903 14.6867 14.89 14.7535 14.9574 14.7644C15.2687 14.8144 15.489 14.9339 15.6187 15.1227L15.6655 15.2228C15.7018 15.295 15.7381 15.4229 15.7744 15.6062C15.8107 15.7895 15.8341 15.9923 15.8444 16.2144C15.8703 16.62 15.8703 16.9673 15.8444 17.2561C15.8184 17.5451 15.7939 17.77 15.7705 17.9312C15.7471 18.0923 15.7121 18.2228 15.6655 18.3228C15.6187 18.4228 15.5876 18.4839 15.572 18.5061C15.5565 18.5283 15.5435 18.5423 15.5332 18.5478C15.4658 18.5754 15.3957 18.5895 15.3231 18.5895C15.2504 18.5895 15.1623 18.5506 15.0586 18.4728C14.9549 18.395 14.8473 18.2881 14.7357 18.1519C14.6242 18.0158 14.4984 17.8255 14.3583 17.5811C14.2183 17.3366 14.0731 17.0478 13.9226 16.7144L13.7982 16.4727C13.7204 16.3172 13.6141 16.0907 13.4792 15.7935C13.3443 15.4963 13.225 15.2087 13.1213 14.9309C13.0799 14.8142 13.0176 14.7254 12.9346 14.6643L12.8957 14.6392C12.8698 14.617 12.8282 14.5935 12.7712 14.5684C12.7141 14.5433 12.6546 14.5253 12.5923 14.5143L10.4604 14.5308C10.2426 14.5308 10.0948 14.5837 10.017 14.6893L9.98581 14.7392C9.97025 14.767 9.9624 14.8115 9.9624 14.8726C9.9624 14.9337 9.97796 15.0088 10.0091 15.0976C10.3203 15.881 10.6587 16.6365 11.0244 17.3643C11.3901 18.0921 11.7078 18.6784 11.9775 19.1226C12.2472 19.5671 12.5221 19.9866 12.8022 20.381C13.0823 20.7755 13.2677 21.0283 13.3584 21.1393C13.4493 21.2506 13.5206 21.3338 13.5725 21.3893L13.767 21.5893C13.8915 21.7227 14.0743 21.8824 14.3155 22.0685C14.5567 22.2547 14.8238 22.438 15.1169 22.6187C15.41 22.7991 15.751 22.9463 16.1401 23.0602C16.5291 23.1742 16.9077 23.2199 17.276 23.1978H18.1708C18.3522 23.181 18.4897 23.1199 18.5832 23.0144L18.6141 22.9727C18.6349 22.9395 18.6544 22.888 18.6724 22.8187C18.6906 22.7492 18.6997 22.6727 18.6997 22.5895C18.6943 22.3507 18.7113 22.1354 18.7501 21.9437C18.7889 21.7521 18.8331 21.6077 18.8825 21.5104C18.9319 21.4132 18.9877 21.3312 19.0497 21.2647C19.1119 21.198 19.1562 21.1577 19.1822 21.1438C19.2081 21.1298 19.2287 21.1203 19.2443 21.1146C19.3687 21.0702 19.5153 21.1132 19.684 21.2439C19.8526 21.3745 20.0107 21.5357 20.1586 21.7273C20.3065 21.919 20.4841 22.1342 20.6915 22.373C20.8991 22.612 21.0806 22.7896 21.2362 22.9064L21.3917 23.0064C21.4956 23.0732 21.6305 23.1343 21.7965 23.1898C21.9622 23.2453 22.1074 23.2592 22.232 23.2315L24.2238 23.1982C24.4208 23.1982 24.574 23.1633 24.6828 23.0939C24.7917 23.0245 24.8564 22.948 24.8773 22.8648C24.8981 22.7815 24.8993 22.687 24.8813 22.5813C24.8628 22.4759 24.8446 22.4022 24.8265 22.3605Z" fill="#638D9B"/>
</svg>
